<?xml version="1.0" encoding="UTF-8"?>
<svg xmlns="http://www.w3.org/2000/svg" width="128" height="128" viewBox="0 0 128 128">
  <defs>
    <linearGradient id="background" x1="0" y1="0" x2="1" y2="1">
      <stop offset="0" stop-color="#3584e4"/>
      <stop offset="1" stop-color="#1c4f8f"/>
    </linearGradient>
  </defs>
  <rect x="8" y="8" width="112" height="112" rx="24" fill="url(#background)"/>
  <rect x="23" y="25" width="36" height="31" rx="6" fill="#f6f5f4" opacity=".96"/>
  <rect x="68" y="25" width="37" height="31" rx="6" fill="#f6f5f4" opacity=".82"/>
  <rect x="23" y="65" width="36" height="38" rx="6" fill="#f6f5f4" opacity=".82"/>
  <rect x="68" y="65" width="37" height="38" rx="6" fill="#f6f5f4" opacity=".96"/>
  <circle cx="86.5" cy="84" r="12" fill="#1c4f8f"/>
  <circle cx="86.5" cy="84" r="6" fill="#62a0ea"/>
  <path d="M39 32a11 11 0 1 0 0 22 11 11 0 0 0 0-22zm0 6a5 5 0 1 1 0 10 5 5 0 0 1 0-10z" fill="#1c4f8f"/>
</svg>
